<svg width="21" height="17" viewBox="0 0 21 17" fill="none" xmlns="http://www.w3.org/2000/svg">
<path d="M14.916 3.81416L13.6629 1.83417C13.3988 1.5263 13.0367 1.33423 12.631 1.33423H8.30003C7.89424 1.33423 7.53223 1.5263 7.26814 1.83417L6.01499 3.81416C5.7509 4.1225 5.41055 4.34705 5.00476 4.34705H2.18024C1.78071 4.34705 1.39755 4.50576 1.11505 4.78827C0.832539 5.07077 0.673828 5.45393 0.673828 5.85346V14.8919C0.673828 15.2914 0.832539 15.6746 1.11505 15.9571C1.39755 16.2396 1.78071 16.3983 2.18024 16.3983H18.7508C19.1503 16.3983 19.5334 16.2396 19.8159 15.9571C20.0985 15.6746 20.2572 15.2914 20.2572 14.8919V5.85346C20.2572 5.45393 20.0985 5.07077 19.8159 4.78827C19.5334 4.50576 19.1503 4.34705 18.7508 4.34705H15.9733C15.5661 4.34705 15.1801 4.1225 14.916 3.81416Z" stroke="#646470" stroke-width="0.979167" stroke-linecap="round" stroke-linejoin="round"/>
<path d="M10.4652 13.3853C12.5452 13.3853 14.2313 11.6992 14.2313 9.6193C14.2313 7.53938 12.5452 5.85327 10.4652 5.85327C8.38533 5.85327 6.69922 7.53938 6.69922 9.6193C6.69922 11.6992 8.38533 13.3853 10.4652 13.3853Z" stroke="#646470" stroke-width="0.979167" stroke-miterlimit="10"/>
</svg>
