<svg width="13" height="15" viewBox="0 0 13 15" fill="none" xmlns="http://www.w3.org/2000/svg">
<path d="M0.773214 12.1344H1.45073V14.0454C1.45073 14.3127 1.66948 14.5315 1.93684 14.5315C2.20419 14.5315 2.42294 14.3127 2.42294 14.0454V12.1344H3.10046C3.36782 12.1344 3.58656 11.9156 3.58656 11.6483V7.75027C3.58656 7.48291 3.36782 7.26416 3.10046 7.26416H2.42294V5.32277C2.42294 5.05542 2.20419 4.83667 1.93684 4.83667C1.66948 4.83667 1.45073 5.05542 1.45073 5.32277V7.26416H0.773214C0.505856 7.26416 0.287109 7.48291 0.287109 7.75027V11.6483C0.287109 11.9187 0.502817 12.1344 0.773214 12.1344Z" fill="#646470"/>
<path d="M5.19314 8.12373H5.87065V10.0347C5.87065 10.3021 6.0894 10.5208 6.35676 10.5208C6.62411 10.5208 6.84286 10.3021 6.84286 10.0347V8.12373H7.52038C7.78774 8.12373 8.00648 7.90498 8.00648 7.63762V3.73962C8.00648 3.47227 7.78774 3.25352 7.52038 3.25352H6.84286V1.3091C6.84286 1.04174 6.62411 0.822998 6.35676 0.822998C6.0894 0.822998 5.87065 1.04174 5.87065 1.3091V3.25049H5.19314C4.92578 3.25049 4.70703 3.46924 4.70703 3.7366V7.6346C4.70703 7.90499 4.92578 8.12373 5.19314 8.12373Z" fill="#646470"/>
<path d="M9.61794 11.0227H10.2955V12.9337C10.2955 13.201 10.5142 13.4198 10.7816 13.4198C11.0489 13.4198 11.2677 13.201 11.2677 12.9337V11.0227H11.9452C12.2125 11.0227 12.4313 10.8039 12.4313 10.5366V6.64162C12.4313 6.37427 12.2125 6.15552 11.9452 6.15552H11.2677V4.21413C11.2677 3.94677 11.0489 3.72803 10.7816 3.72803C10.5142 3.72803 10.2955 3.94677 10.2955 4.21413V6.15552H9.61794C9.35058 6.15552 9.13184 6.37427 9.13184 6.64162V10.5396C9.13184 10.807 9.35058 11.0227 9.61794 11.0227V11.0227Z" fill="#646470"/>
<path d="M3.05344 8.01514H0.840332V11.3348H3.05344V8.01514Z" fill="#646470"/>
<path d="M7.47971 4.14233H5.2666V7.46199H7.47971V4.14233Z" fill="#646470"/>
<path d="M11.906 6.90894H9.69287V10.2286H11.906V6.90894Z" fill="#646470"/>
</svg>
