<svg width="12" height="12" viewBox="0 0 12 12" fill="none" xmlns="http://www.w3.org/2000/svg">
<g id="Frame">
<path id="Vector" d="M6.1108 6.70665H7.04688V8.39764C7.04688 8.89626 6.87528 9.25822 6.62105 9.49686C6.36367 9.73854 5.99621 9.87727 5.56727 9.87727H3.02648C2.59754 9.87727 2.23009 9.73854 1.97268 9.49686C1.71849 9.25822 1.54688 8.89626 1.54688 8.39764V5.53331C1.54688 5.03469 1.71849 4.67273 1.97268 4.43408C2.23009 4.19243 2.59754 4.05371 3.02648 4.05371H4.39393V4.98979C4.39393 5.94128 5.16492 6.70665 6.1108 6.70665Z" fill="#F5F5F5" fill-opacity="0.3" stroke="#F5F5F5" stroke-opacity="0.3" stroke-width="0.647059"/>
<path id="Vector_2" d="M7.1979 1.89648H8.04768C8.47662 1.89648 8.84408 2.0352 9.10148 2.27686C9.35565 2.51551 9.52731 2.87747 9.52731 3.37609V4.2259V5.39492V6.24472C9.52731 6.73022 9.36387 7.08445 9.1209 7.32108C8.94535 7.49209 8.71597 7.61361 8.44886 7.67379V7.12042V5.95139V5.10159C8.44886 4.44413 8.21715 3.90453 7.81888 3.53062C7.42386 3.15973 6.88971 2.97492 6.3222 2.97492H5.4724H5.0022H4.07227C4.1397 2.66875 4.28416 2.43257 4.47237 2.26161C4.72783 2.02957 5.08757 1.89648 5.5069 1.89648H6.72769H7.1979Z" fill="#F5F5F5" fill-opacity="0.3" stroke="#F5F5F5" stroke-opacity="0.3" stroke-width="0.647059"/>
<path id="Vector_3" d="M6.06322 5.60688L6.05867 5.60685C5.73516 5.60685 5.48926 5.35321 5.48926 5.06763V4.2168C5.90046 4.63362 6.46138 5.19778 6.87386 5.61109C6.5856 5.61089 6.29049 5.61008 6.06322 5.60688Z" fill="#F5F5F5" fill-opacity="0.3"/>
</g>
</svg>
