<svg width="16" height="17" viewBox="0 0 16 17" fill="none" xmlns="http://www.w3.org/2000/svg">
<path d="M13.3997 6.92926C12.1931 6.92926 11.6997 6.07592 12.2997 5.02926C12.6464 4.42259 12.4397 3.64926 11.8331 3.30259L10.6797 2.64259C10.1531 2.32925 9.47301 2.51592 9.15968 3.04259L9.08635 3.16925C8.48635 4.21592 7.49968 4.21592 6.89301 3.16925L6.81968 3.04259C6.51968 2.51592 5.83968 2.32925 5.31301 2.64259L4.15968 3.30259C3.55301 3.64926 3.34635 4.42927 3.69301 5.03593C4.29968 6.07593 3.80635 6.92926 2.59968 6.92926C1.90635 6.92926 1.33301 7.49592 1.33301 8.19592V9.36926C1.33301 10.0626 1.89968 10.6359 2.59968 10.6359C3.80635 10.6359 4.29968 11.4893 3.69301 12.5359C3.34635 13.1426 3.55301 13.9159 4.15968 14.2626L5.31301 14.9226C5.83968 15.2359 6.51968 15.0493 6.83301 14.5226L6.90635 14.3959C7.50635 13.3493 8.49301 13.3493 9.09968 14.3959L9.17301 14.5226C9.48635 15.0493 10.1664 15.2359 10.6931 14.9226L11.8464 14.2626C12.4531 13.9159 12.6597 13.1359 12.3131 12.5359C11.7064 11.4893 12.1997 10.6359 13.4064 10.6359C14.0997 10.6359 14.6731 10.0693 14.6731 9.36926V8.19592C14.6664 7.50259 14.0997 6.92926 13.3997 6.92926ZM7.99968 10.9493C6.80635 10.9493 5.83301 9.97592 5.83301 8.78259C5.83301 7.58925 6.80635 6.61592 7.99968 6.61592C9.19301 6.61592 10.1664 7.58925 10.1664 8.78259C10.1664 9.97592 9.19301 10.9493 7.99968 10.9493Z" fill="white" fill-opacity="0.8"/>
</svg>
