<svg width="21" height="20" viewBox="0 0 21 20" fill="none" xmlns="http://www.w3.org/2000/svg">
<path fill-rule="evenodd" clip-rule="evenodd" d="M3.88494 0.375H7.6151C8.05655 0.375 8.41442 0.732868 8.41442 1.17432C8.41442 1.61577 8.05655 1.97364 7.6151 1.97364H3.88494C3.14919 1.97364 2.55274 2.57009 2.55274 3.30584V7.036C2.55274 7.47745 2.19487 7.83532 1.75342 7.83532C1.31197 7.83532 0.954102 7.47745 0.954102 7.036V3.30584C0.954102 1.68718 2.26628 0.375 3.88494 0.375ZM17.6072 0.375H13.877C13.4356 0.375 13.0777 0.732868 13.0777 1.17432C13.0777 1.61577 13.4356 1.97364 13.877 1.97364H17.6072C18.3429 1.97364 18.9394 2.57009 18.9394 3.30584V7.036C18.9394 7.47745 19.2972 7.83532 19.7387 7.83532C20.1801 7.83532 20.538 7.47745 20.538 7.036V3.30584C20.538 1.68718 19.2258 0.375 17.6072 0.375ZM3.8851 18.3597H7.61526C8.05671 18.3597 8.41458 18.7175 8.41458 19.159C8.41458 19.6004 8.05671 19.9583 7.61526 19.9583H3.8851C2.26644 19.9583 0.954262 18.6461 0.954262 17.0275V13.2973C0.954262 13.0117 1.10661 12.7479 1.35392 12.6051C1.60123 12.4623 1.90593 12.4623 2.15324 12.6051C2.40055 12.7479 2.5529 13.0117 2.5529 13.2973V17.0275C2.5529 17.7632 3.14935 18.3597 3.8851 18.3597ZM18.9394 13.2985C18.9394 12.8564 19.2972 12.498 19.7387 12.498C20.176 12.498 20.5322 12.8499 20.538 13.2878V17.0233C20.538 18.6443 19.2258 19.9583 17.6072 19.9583H13.877C13.4356 19.9583 13.0777 19.5999 13.0777 19.1579C13.0777 18.7158 13.4356 18.3574 13.877 18.3574H17.6072C18.3429 18.3574 18.9394 17.7601 18.9394 17.0233V13.2985Z" fill="#757CA4"/>
</svg>
