<svg width="15" height="13" viewBox="0 0 15 13" fill="none" xmlns="http://www.w3.org/2000/svg">
<path d="M10.8475 12.7714C10.4531 12.7714 10.138 12.3956 10.0036 11.7628C9.41659 9.02437 8.85012 6.28093 8.28357 3.53748L7.98017 2.07008C7.86377 2.47991 7.75235 2.87005 7.64278 3.26011L7.26755 4.61236C7.04283 5.42406 6.81802 6.23513 6.58645 7.04497C6.53815 7.21589 6.38952 7.73653 5.9605 7.84922C5.52838 7.96459 5.13895 7.57692 5.01084 7.45066C4.4703 6.91758 3.93721 6.37704 3.38122 5.81421L2.9063 5.33379L0.565952 7.73241C0.447062 7.85379 0.25146 7.85814 0.128232 7.73739C0.00623227 7.6185 0.00374595 7.42229 0.123256 7.29967L2.68345 4.67571C2.7416 4.6157 2.81281 4.58408 2.90506 4.58284C2.98798 4.58284 3.06665 4.61632 3.12491 4.67447L3.82206 5.38035C4.37555 5.94069 4.90678 6.47876 5.44546 7.0106C5.69868 7.26009 5.79965 7.25024 5.80212 7.25087C5.80212 7.25087 5.89561 7.20754 5.99097 6.87503C6.22191 6.06706 6.44538 5.25786 6.67021 4.44801L7.04605 3.09391C7.18163 2.61161 7.31846 2.12995 7.46708 1.6117L7.69677 0.807449C7.73264 0.680475 7.84479 0.590091 7.97664 0.583354C8.12154 0.573404 8.2311 0.653319 8.28065 0.775318L8.34875 0.93629C8.38772 1.02605 8.40513 1.07249 8.41436 1.11954L8.88928 3.41346C9.45522 6.15558 10.021 8.89716 10.6087 11.6345C10.6749 11.9472 10.8006 12.136 10.852 12.154C10.8904 12.1336 10.9697 12.0197 11.0867 11.5949C11.2693 10.9256 11.4205 10.2371 11.5665 9.57091C11.6327 9.27 11.699 8.9691 11.7677 8.66883L12.8474 3.98993C12.879 3.85373 12.9973 3.75589 13.1372 3.74967C13.2624 3.75464 13.4029 3.83259 13.4444 3.96578L14.7835 8.19332C14.835 8.35678 14.7446 8.53071 14.5824 8.58211C14.4164 8.6329 14.245 8.54313 14.1936 8.38092L13.1961 5.23255L12.3715 8.8076C12.3034 9.1054 12.2371 9.40442 12.1715 9.70284C12.0241 10.3765 11.8713 11.073 11.6855 11.7529C11.5877 12.1102 11.4081 12.7651 10.8571 12.772C10.8543 12.7716 10.8506 12.7714 10.8475 12.7714Z" fill="#646470"/>
</svg>
