<svg width="11" height="11" viewBox="0 0 11 11" fill="none" xmlns="http://www.w3.org/2000/svg">
<g id="Icon">
<g id="Sonic_Logo">
<path id="Vector" d="M6.74536 6.25539C4.79163 6.82239 3.17546 7.6494 2.1638 8.6184L2.11914 8.6614C2.38815 8.9074 2.68314 9.1274 3.002 9.3144L3.07056 9.2334C3.34685 8.9074 3.64287 8.5924 3.95134 8.2954C4.77917 7.4984 5.72642 6.80839 6.7464 6.25439L6.74536 6.25539Z" fill="#C5C5C8"/>
<path id="Vector_2" d="M0.521973 5.41553C0.599872 6.42653 0.988333 7.35353 1.59803 8.10753L1.62607 8.08053C2.25238 7.48353 3.06774 6.94053 4.05135 6.46753C4.91345 6.05253 5.9033 5.69653 6.97001 5.41553H0.521973Z" fill="#C5C5C8"/>
<path id="Vector_3" d="M4.49788 1.26048C6.24595 2.94348 8.44584 4.05648 10.8587 4.47848C10.5678 1.98348 8.37003 0.0424805 5.69962 0.0424805C4.99436 0.0424805 4.32234 0.178481 3.7085 0.42348C3.95777 0.71348 4.22367 0.99548 4.49788 1.26048Z" fill="#C5C5C8"/>
<path id="Vector_4" d="M2.1638 1.46651C3.17546 2.43652 4.79163 3.26252 6.74536 3.83052C5.72538 3.27552 4.77813 2.58652 3.9503 1.78952C3.64287 1.49351 3.34685 1.17851 3.06952 0.851508L3.00098 0.770508C2.6821 0.957508 2.38711 1.17751 2.11914 1.42351L2.1638 1.46651Z" fill="#C5C5C8"/>
<path id="Vector_5" d="M4.49788 8.82447C4.22263 9.08947 3.95674 9.37147 3.7085 9.66147C4.3213 9.90647 4.99436 10.0425 5.69962 10.0425C8.37003 10.0425 10.5678 8.10147 10.8597 5.60547C8.44688 6.02747 6.24699 7.14047 4.49892 8.82347L4.49788 8.82447Z" fill="#C5C5C8"/>
<path id="Vector_6" d="M4.05135 3.61754C3.06774 3.14454 2.25238 2.60154 1.62607 2.00454L1.59803 1.97754C0.988333 2.73154 0.599872 3.65854 0.521973 4.66954H6.96897C5.90226 4.38854 4.91346 4.03254 4.05031 3.61654L4.05135 3.61754Z" fill="#C5C5C8"/>
</g>
</g>
</svg>
