<svg width="17" height="17" viewBox="0 0 17 17" fill="none" xmlns="http://www.w3.org/2000/svg">
<path d="M6.27474 7.39714C5.26141 7.39714 4.44141 6.57714 4.44141 5.5638C4.44141 4.55047 5.26141 3.73047 6.27474 3.73047C7.28807 3.73047 8.10807 4.55047 8.10807 5.5638C8.10807 6.57714 7.28807 7.39714 6.27474 7.39714ZM6.27474 4.73047C5.81474 4.73047 5.44141 5.1038 5.44141 5.5638C5.44141 6.0238 5.81474 6.39714 6.27474 6.39714C6.73474 6.39714 7.10807 6.0238 7.10807 5.5638C7.10807 5.1038 6.73474 4.73047 6.27474 4.73047Z" fill="#646470"/>
<path d="M10.2747 15.3975H6.2747C2.6547 15.3975 1.10803 13.8509 1.10803 10.2309V6.23088C1.10803 2.61088 2.6547 1.06421 6.2747 1.06421H8.94137C9.2147 1.06421 9.44137 1.29088 9.44137 1.56421C9.44137 1.83754 9.2147 2.06421 8.94137 2.06421H6.2747C3.20137 2.06421 2.10803 3.15754 2.10803 6.23088V10.2309C2.10803 13.3042 3.20137 14.3975 6.2747 14.3975H10.2747C13.348 14.3975 14.4414 13.3042 14.4414 10.2309V6.89754C14.4414 6.62421 14.668 6.39754 14.9414 6.39754C15.2147 6.39754 15.4414 6.62421 15.4414 6.89754V10.2309C15.4414 13.8509 13.8947 15.3975 10.2747 15.3975Z" fill="#646470"/>
<path d="M12.2747 6.06466C12.0013 6.06466 11.7747 5.83799 11.7747 5.56466V1.56466C11.7747 1.36466 11.8947 1.17799 12.0813 1.10466C12.268 1.03132 12.4813 1.07132 12.628 1.21132L13.9613 2.54466C14.1547 2.73799 14.1547 3.05799 13.9613 3.25132C13.768 3.44466 13.448 3.44466 13.2547 3.25132L12.7747 2.77132V5.56466C12.7747 5.83799 12.548 6.06466 12.2747 6.06466Z" fill="#646470"/>
<path d="M10.9413 3.3971C10.8147 3.3971 10.688 3.35043 10.588 3.25043C10.3947 3.0571 10.3947 2.7371 10.588 2.54376L11.9213 1.21043C12.1147 1.0171 12.4347 1.0171 12.628 1.21043C12.8213 1.40376 12.8213 1.72376 12.628 1.9171L11.2947 3.25043C11.1947 3.35043 11.068 3.3971 10.9413 3.3971Z" fill="#646470"/>
<path d="M2.05457 13.3645C1.89457 13.3645 1.73457 13.2845 1.64124 13.1445C1.4879 12.9178 1.5479 12.6045 1.77457 12.4512L5.06124 10.2445C5.78124 9.76449 6.77457 9.81783 7.4279 10.3712L7.6479 10.5645C7.98124 10.8512 8.5479 10.8512 8.87457 10.5645L11.6479 8.18449C12.3546 7.57783 13.4679 7.57783 14.1812 8.18449L15.2679 9.11783C15.4746 9.29783 15.5012 9.61116 15.3212 9.82449C15.1412 10.0312 14.8212 10.0578 14.6146 9.87783L13.5279 8.94449C13.1946 8.65783 12.6346 8.65783 12.3012 8.94449L9.5279 11.3245C8.82124 11.9312 7.7079 11.9312 6.99457 11.3245L6.77457 11.1312C6.4679 10.8712 5.96124 10.8445 5.62124 11.0778L2.34124 13.2845C2.2479 13.3378 2.1479 13.3645 2.05457 13.3645Z" fill="#646470"/>
</svg>
