<svg width="21" height="20" viewBox="0 0 21 20" fill="none" xmlns="http://www.w3.org/2000/svg">
<path fill-rule="evenodd" clip-rule="evenodd" d="M17.9594 7.09662C18.1496 7.56013 18.6003 7.86334 19.1014 7.8648C19.7814 7.87029 20.3297 8.42309 20.3297 9.10312V11.2402C20.3297 11.9241 19.7753 12.4785 19.0914 12.4785C18.5904 12.48 18.1396 12.7832 17.9494 13.2467C17.7592 13.7102 17.867 14.2427 18.2226 14.5956C18.6995 15.0844 18.6995 15.8645 18.2226 16.3532L16.7246 17.8512C16.2358 18.3282 15.4558 18.3282 14.967 17.8512C14.7415 17.6123 14.4266 17.4784 14.0982 17.4817C13.768 17.479 13.4505 17.6083 13.2161 17.8409C12.9817 18.0734 12.8499 18.3899 12.8499 18.72C12.8499 19.4039 12.2955 19.9583 11.6116 19.9583H9.47447C8.79057 19.9583 8.23616 19.4039 8.23616 18.72C8.23617 18.3899 8.10434 18.0734 7.86994 17.8409C7.63555 17.6083 7.31801 17.479 6.98786 17.4817C6.65942 17.4784 6.3445 17.6123 6.11904 17.8512C5.63026 18.3282 4.85022 18.3282 4.36144 17.8512L2.86348 16.3532C2.3865 15.8645 2.3865 15.0844 2.86348 14.5956C3.21904 14.2427 3.32687 13.7102 3.13666 13.2467C2.94645 12.7832 2.49568 12.48 1.99466 12.4785C1.66624 12.4785 1.35127 12.3481 1.11904 12.1158C0.886812 11.8836 0.756348 11.5686 0.756348 11.2402V9.10312C0.756348 8.41921 1.31076 7.8648 1.99466 7.8648C2.49568 7.86334 2.94645 7.56013 3.13666 7.09662C3.32687 6.63312 3.21904 6.10066 2.86348 5.74768C2.3865 5.2589 2.3865 4.47886 2.86348 3.99008L4.36144 2.49212C4.85022 2.01513 5.63026 2.01513 6.11904 2.49212C6.3445 2.73099 6.65942 2.86492 6.98786 2.86161C7.31975 2.8643 7.63882 2.73365 7.87351 2.49896C8.10819 2.26427 8.23885 1.9452 8.23616 1.61331C8.23616 0.929412 8.79057 0.375 9.47447 0.375H11.6216C12.3055 0.375 12.8599 0.929412 12.8599 1.61331C12.8572 1.9452 12.9878 2.26427 13.2225 2.49896C13.4572 2.73365 13.7763 2.8643 14.1082 2.86161C14.4366 2.86492 14.7515 2.73099 14.977 2.49212C15.4658 2.01513 16.2458 2.01513 16.7346 2.49212L18.2325 3.99008C18.7095 4.47886 18.7095 5.2589 18.2325 5.74768C17.877 6.10066 17.7692 6.63312 17.9594 7.09662ZM16.5355 12.6681C16.9253 11.7176 17.818 11.0684 18.8423 10.9904L18.8124 9.35261C17.7991 9.26377 16.9205 8.61632 16.5355 7.6749C16.1583 6.73126 16.331 5.65666 16.9848 4.87871L15.8364 3.73027C15.3494 4.13813 14.734 4.36094 14.0988 4.35941C12.6836 4.35595 11.5009 3.28123 11.3625 1.8728H9.72473C9.59076 3.28347 8.40548 4.36061 6.98846 4.35941C6.35322 4.36094 5.73784 4.13813 5.25083 3.73027L4.13235 4.87871C4.776 5.6626 4.93711 6.73666 4.55178 7.6749C4.16677 8.61632 3.28809 9.26377 2.27488 9.35261V10.9904C3.28809 11.0792 4.16677 11.7267 4.55178 12.6681C4.9289 13.6117 4.7562 14.6863 4.10239 15.4643L5.25083 16.6127C5.73784 16.2049 6.35322 15.9821 6.98846 15.9836C8.40368 15.9871 9.58629 17.0618 9.72473 18.4702H11.3625C11.4874 17.055 12.6781 15.9729 14.0988 15.9836C14.734 15.9821 15.3494 16.2049 15.8364 16.6127L16.9549 15.4643C16.3112 14.6804 16.1501 13.6063 16.5355 12.6681Z" fill="#646470"/>
<path fill-rule="evenodd" clip-rule="evenodd" d="M7.08838 10.1714C7.08838 8.26305 8.63537 6.71606 10.5437 6.71606C11.4601 6.71606 12.3389 7.0801 12.9869 7.7281C13.6349 8.37609 13.999 9.25496 13.999 10.1714C13.999 12.0797 12.452 13.6267 10.5437 13.6267C8.63537 13.6267 7.08838 12.0797 7.08838 10.1714ZM8.54667 10.1718C8.54667 11.2748 9.44089 12.1691 10.544 12.1691C11.647 12.1691 12.5412 11.2748 12.5412 10.1718C12.5412 9.06871 11.647 8.17449 10.544 8.17449C9.44089 8.17449 8.54667 9.06871 8.54667 10.1718Z" fill="#646470"/>
</svg>
