<svg width="19" height="16" viewBox="0 0 19 16" fill="none" xmlns="http://www.w3.org/2000/svg">
<path d="M18.0324 1.90013C17.79 4.452 16.7404 10.6539 16.2072 13.5127C15.9813 14.724 15.5292 15.1279 15.1091 15.1762C14.1723 15.2569 13.4615 14.5626 12.5572 13.9649C11.1358 13.0281 10.3284 12.4466 8.9555 11.5423C7.35655 10.4924 8.39021 9.91095 9.31084 8.97421C9.5531 8.73208 13.6877 4.96883 13.7685 4.62966C13.7797 4.57829 13.7784 4.52494 13.7642 4.47429C13.7503 4.42362 13.7238 4.37715 13.6877 4.33894C13.5908 4.25817 13.4615 4.29048 13.3487 4.30662C13.2032 4.33894 10.942 5.84097 6.53286 8.81279C5.8868 9.24875 5.30536 9.475 4.78853 9.45879C4.2071 9.44258 3.10881 9.13596 2.28512 8.86109C1.2676 8.53825 0.476201 8.36063 0.5408 7.79534C0.573117 7.50459 0.976888 7.21384 1.73598 6.90695C6.45208 4.85577 9.58538 3.49908 11.1521 2.85305C15.6419 0.979526 16.5628 0.656494 17.1764 0.656494C17.3057 0.656494 17.6123 0.688778 17.8062 0.850293C17.9679 0.979526 18.0162 1.15718 18.0324 1.28638C18.0162 1.3833 18.0486 1.67401 18.0324 1.90013Z" fill="#646470"/>
</svg>
