<svg width="12" height="17" viewBox="0 0 12 17" fill="none" xmlns="http://www.w3.org/2000/svg">
<path d="M9.91858 1.89379C10.103 1.46566 9.96546 0.965664 9.58733 0.690664C9.2092 0.415664 8.69358 0.440664 8.34046 0.746914L0.340456 7.74691C0.0279556 8.02191 -0.0845445 8.46254 0.0623305 8.85004C0.209206 9.23754 0.584206 9.50004 0.99983 9.50004H4.48421L2.08108 15.1063C1.89671 15.5344 2.03421 16.0344 2.41233 16.3094C2.79046 16.5844 3.30608 16.5594 3.65921 16.2532L11.6592 9.25316C11.9717 8.97816 12.0842 8.53754 11.9373 8.15004C11.7905 7.76254 11.4186 7.50316 10.9998 7.50316H7.51546L9.91858 1.89379Z" fill="#646470"/>
</svg>
