<svg width="15" height="15" viewBox="0 0 15 15" fill="none" xmlns="http://www.w3.org/2000/svg">
<path fill-rule="evenodd" clip-rule="evenodd" d="M9.8209 6.51912C9.8629 6.95939 9.8888 7.42346 9.8888 7.91904C9.8888 8.10467 9.81502 8.28274 9.68378 8.41398C9.55254 8.54522 9.37447 8.619 9.18884 8.619C9.00321 8.619 8.82514 8.54522 8.6939 8.41398C8.56265 8.28274 8.48888 8.10467 8.48888 7.91904C8.48888 7.41996 8.46158 6.95449 8.41538 6.51912H5.75343C5.65615 7.44981 5.65521 8.38808 5.75063 9.31896H7.08896C7.27459 9.31896 7.45266 9.39273 7.5839 9.52397C7.71514 9.65522 7.78892 9.83329 7.78892 10.0189C7.78892 10.2045 7.71514 10.3826 7.5839 10.5139C7.45266 10.6451 7.27459 10.7189 7.08896 10.7189H5.98022C6.3085 12.1748 6.82157 13.1057 7.08966 13.5187C7.08966 13.5187 7.64193 13.5278 7.73782 13.5201C7.92268 13.5081 8.10481 13.5693 8.24494 13.6904C8.38507 13.8116 8.47194 13.9829 8.48678 14.1676C8.50029 14.3527 8.43974 14.5355 8.31844 14.676C8.19713 14.8164 8.02508 14.903 7.84001 14.9165C7.77422 14.9214 7.08896 14.9186 7.08896 14.9186C3.22938 14.9186 0.0893555 11.7786 0.0893555 7.91904C0.0893555 4.05876 3.22938 0.919434 7.08896 0.919434C10.9485 0.919434 14.0886 4.05876 14.0886 7.91904C14.0886 8.18432 14.0634 8.44331 14.0333 8.70019C14.0055 8.87938 13.9093 9.04079 13.765 9.15055C13.6206 9.26023 13.4393 9.30979 13.2593 9.28865C13.0792 9.26751 12.9143 9.17742 12.7993 9.03729C12.6842 8.89716 12.628 8.71783 12.6424 8.5371C12.6669 8.33341 12.6886 8.12902 12.6886 7.91904C12.6886 7.43466 12.62 6.96709 12.5045 6.51912H9.8209ZM7.08056 2.34455C6.81037 2.76873 6.3106 3.69618 5.98582 5.11919H8.18159C7.85541 3.69618 7.35214 2.76873 7.08056 2.34455ZM1.67337 9.31896H4.34651C4.30592 8.87868 4.28002 8.41601 4.28002 7.92184C4.28047 7.45347 4.30289 6.98538 4.34721 6.51912H1.67337C1.55717 6.96709 1.48928 7.43466 1.48928 7.91904C1.49102 8.39158 1.55287 8.86202 1.67337 9.31896ZM2.24663 10.7189C2.93784 11.9114 4.0431 12.8084 5.35236 13.2394C4.98763 12.4333 4.71797 11.5874 4.5488 10.7189H2.24663ZM4.5502 5.11919C4.76089 4.06855 5.06467 3.2272 5.35516 2.59724C4.04461 3.02794 2.93821 3.92556 2.24663 5.11919H4.5502ZM9.61721 5.11919H11.9306C11.2362 3.91994 10.1231 3.01954 8.80526 2.59094C9.17442 3.39881 9.44698 4.24744 9.61721 5.11919Z" fill="#646470"/>
<path d="M10.7448 14.1806L8.95983 10.2536C8.826 9.95917 9.12887 9.65637 9.42328 9.79013L13.3502 11.5752C13.6182 11.697 13.6252 12.0752 13.3619 12.2068L12.1426 12.8164C12.0749 12.8503 12.02 12.9052 11.9861 12.9729L11.3764 14.1922C11.2448 14.4556 10.8667 14.4486 10.7448 14.1806Z" fill="#646470"/>
</svg>
