<svg width="25" height="25" viewBox="0 0 25 25" fill="none" xmlns="http://www.w3.org/2000/svg">
<path d="M12.0371 24.1826C18.6645 24.1826 24.0371 18.81 24.0371 12.1826C24.0371 5.5552 18.6645 0.182617 12.0371 0.182617C5.40969 0.182617 0.0371094 5.5552 0.0371094 12.1826C0.0371094 18.81 5.40969 24.1826 12.0371 24.1826Z" fill="url(#paint0_linear_1_14154)"/>
<path d="M13.8013 14.2114C10.5337 15.1597 7.83066 16.5429 6.13866 18.1635L6.06396 18.2354C6.51388 18.6469 7.00725 19.0148 7.54054 19.3276L7.65521 19.1921C8.1173 18.6469 8.6124 18.12 9.12832 17.6233C10.5129 16.2903 12.0971 15.1363 13.8031 14.2097L13.8013 14.2114Z" fill="url(#paint1_radial_1_14154)"/>
<path d="M13.8013 14.2114C10.5337 15.1597 7.83066 16.5429 6.13866 18.1635L6.06396 18.2354C6.51388 18.6469 7.00725 19.0148 7.54054 19.3276L7.65521 19.1921C8.1173 18.6469 8.6124 18.12 9.12832 17.6233C10.5129 16.2903 12.0971 15.1363 13.8031 14.2097L13.8013 14.2114Z" fill="#F5F5F5"/>
<path d="M3.39209 12.8064C3.52238 14.4973 4.17208 16.0477 5.1918 17.3088L5.2387 17.2636C6.2862 16.2651 7.64989 15.357 9.29497 14.5659C10.7368 13.8718 12.3924 13.2764 14.1764 12.8064H3.39209Z" fill="url(#paint2_radial_1_14154)"/>
<path d="M3.39209 12.8064C3.52238 14.4973 4.17208 16.0477 5.1918 17.3088L5.2387 17.2636C6.2862 16.2651 7.64989 15.357 9.29497 14.5659C10.7368 13.8718 12.3924 13.2764 14.1764 12.8064H3.39209Z" fill="#F5F5F5"/>
<path d="M10.0419 5.85717C12.9656 8.67198 16.6449 10.5335 20.6803 11.2393C20.1939 7.06638 16.5181 3.82007 12.0518 3.82007C10.8723 3.82007 9.74834 4.04753 8.72168 4.45729C9.1386 4.94232 9.58331 5.41396 10.0419 5.85717Z" fill="url(#paint3_radial_1_14154)"/>
<path d="M10.0419 5.85717C12.9656 8.67198 16.6449 10.5335 20.6803 11.2393C20.1939 7.06638 16.5181 3.82007 12.0518 3.82007C10.8723 3.82007 9.74834 4.04753 8.72168 4.45729C9.1386 4.94232 9.58331 5.41396 10.0419 5.85717Z" fill="#F5F5F5"/>
<path d="M6.13866 6.20166C7.83066 7.824 10.5337 9.20548 13.8013 10.1555C12.0954 9.22723 10.5111 8.07487 9.12659 6.74189C8.6124 6.24682 8.1173 5.71998 7.65347 5.17307L7.53884 5.0376C7.00551 5.35036 6.51215 5.71831 6.06396 6.12974L6.13866 6.20166Z" fill="url(#paint4_radial_1_14154)"/>
<path d="M6.13866 6.20166C7.83066 7.824 10.5337 9.20548 13.8013 10.1555C12.0954 9.22723 10.5111 8.07487 9.12659 6.74189C8.6124 6.24682 8.1173 5.71998 7.65347 5.17307L7.53884 5.0376C7.00551 5.35036 6.51215 5.71831 6.06396 6.12974L6.13866 6.20166Z" fill="#F5F5F5"/>
<path d="M10.0419 18.508C9.58158 18.9513 9.13686 19.4229 8.72168 19.9079C9.7466 20.3177 10.8723 20.5452 12.0518 20.5452C16.5181 20.5452 20.1939 17.2988 20.6821 13.1243C16.6466 13.8301 12.9673 15.6916 10.0437 18.5064L10.0419 18.508Z" fill="url(#paint5_radial_1_14154)"/>
<path d="M10.0419 18.508C9.58158 18.9513 9.13686 19.4229 8.72168 19.9079C9.7466 20.3177 10.8723 20.5452 12.0518 20.5452C16.5181 20.5452 20.1939 17.2988 20.6821 13.1243C16.6466 13.8301 12.9673 15.6916 10.0437 18.5064L10.0419 18.508Z" fill="#F5F5F5"/>
<path d="M9.29498 9.7993C7.64989 9.00821 6.2862 8.10004 5.2387 7.10155L5.1918 7.0564C4.17208 8.31746 3.52238 9.86787 3.39209 11.5588H14.1747C12.3906 11.0888 10.7368 10.4934 9.29324 9.79763L9.29498 9.7993Z" fill="url(#paint6_radial_1_14154)"/>
<path d="M9.29498 9.7993C7.64989 9.00821 6.2862 8.10004 5.2387 7.10155L5.1918 7.0564C4.17208 8.31746 3.52238 9.86787 3.39209 11.5588H14.1747C12.3906 11.0888 10.7368 10.4934 9.29324 9.79763L9.29498 9.7993Z" fill="#F5F5F5"/>
<defs>
<linearGradient id="paint0_linear_1_14154" x1="27.3887" y1="-10.2424" x2="-2.78667" y2="-7.55787" gradientUnits="userSpaceOnUse">
<stop offset="0.25" stop-color="#214E82"/>
<stop offset="0.5" stop-color="#506077"/>
<stop offset="0.75" stop-color="#EC5409"/>
<stop offset="1" stop-color="#FFC966"/>
</linearGradient>
<radialGradient id="paint1_radial_1_14154" cx="0" cy="0" r="1" gradientUnits="userSpaceOnUse" gradientTransform="translate(12.0372 12.1826) rotate(90) scale(8.36251 8.64501)">
<stop stop-color="#1C294B"/>
<stop offset="0.317213" stop-color="#FF4433"/>
<stop offset="0.597213" stop-color="#FE9A4C"/>
<stop offset="1" stop-color="#E0E0E0"/>
</radialGradient>
<radialGradient id="paint2_radial_1_14154" cx="0" cy="0" r="1" gradientUnits="userSpaceOnUse" gradientTransform="translate(12.0371 12.1826) rotate(90) scale(8.36251 8.64501)">
<stop stop-color="#1C294B"/>
<stop offset="0.317213" stop-color="#FF4433"/>
<stop offset="0.597213" stop-color="#FE9A4C"/>
<stop offset="1" stop-color="#E0E0E0"/>
</radialGradient>
<radialGradient id="paint3_radial_1_14154" cx="0" cy="0" r="1" gradientUnits="userSpaceOnUse" gradientTransform="translate(12.0371 12.1826) rotate(90) scale(8.3625 8.64501)">
<stop stop-color="#1C294B"/>
<stop offset="0.317213" stop-color="#FF4433"/>
<stop offset="0.597213" stop-color="#FE9A4C"/>
<stop offset="1" stop-color="#E0E0E0"/>
</radialGradient>
<radialGradient id="paint4_radial_1_14154" cx="0" cy="0" r="1" gradientUnits="userSpaceOnUse" gradientTransform="translate(12.0372 12.1825) rotate(90) scale(8.3625 8.64501)">
<stop stop-color="#1C294B"/>
<stop offset="0.317213" stop-color="#FF4433"/>
<stop offset="0.597213" stop-color="#FE9A4C"/>
<stop offset="1" stop-color="#E0E0E0"/>
</radialGradient>
<radialGradient id="paint5_radial_1_14154" cx="0" cy="0" r="1" gradientUnits="userSpaceOnUse" gradientTransform="translate(12.0371 12.1826) rotate(90) scale(8.36251 8.64501)">
<stop stop-color="#1C294B"/>
<stop offset="0.317213" stop-color="#FF4433"/>
<stop offset="0.597213" stop-color="#FE9A4C"/>
<stop offset="1" stop-color="#E0E0E0"/>
</radialGradient>
<radialGradient id="paint6_radial_1_14154" cx="0" cy="0" r="1" gradientUnits="userSpaceOnUse" gradientTransform="translate(12.0371 12.1826) rotate(90) scale(8.36251 8.64501)">
<stop stop-color="#1C294B"/>
<stop offset="0.317213" stop-color="#FF4433"/>
<stop offset="0.597213" stop-color="#FE9A4C"/>
<stop offset="1" stop-color="#E0E0E0"/>
</radialGradient>
</defs>
</svg>
